<?xml version="1.0" encoding="utf-8"?>
<!-- Generator: Adobe Illustrator 15.0.0, SVG Export Plug-In . SVG Version: 6.00 Build 0)  -->
<!DOCTYPE svg PUBLIC "-//W3C//DTD SVG 1.0//EN" "http://www.w3.org/TR/2001/REC-SVG-20010904/DTD/svg10.dtd">
<svg version="1.0" id="Layer_1" xmlns="http://www.w3.org/2000/svg" xmlns:xlink="http://www.w3.org/1999/xlink" x="0px" y="0px"
	 width="1152px" height="1152.001px" viewBox="0 0 1152 1152.001" enable-background="new 0 0 1152 1152.001" xml:space="preserve">
<circle fill="#4B5666" cx="576" cy="576" r="576"/>
<g>
	<path fill="#FBD35C" d="M188.2964,188.29c214.2964-214.2959,561.1108-214.293,775.4106,0.0078L576.0049,575.999L188.2964,188.29z"
		/>
</g>
<g>
	<path fill="#A4D970" d="M963.71,188.293c214.2979,214.2979,214.293,561.1104-0.0068,775.4092L576.002,576.001L963.71,188.293z"/>
</g>
<g>
	<path fill="#9EBEED" d="M963.7031,963.709c-214.2959,214.2988-561.1104,214.293-775.4102-0.0068L575.9951,576.001L963.7031,963.709
		z"/>
</g>
<g>
	<path fill="#FA7977" d="M188.2896,963.707c-214.2959-214.2979-214.2925-561.1104,0.0068-775.4092L575.999,575.999L188.2896,963.707
		z"/>
</g>
<circle fill="#4B5666" cx="576" cy="576" r="180"/>
<g>
	<path fill="#FFFFFF" d="M466.7227,560.9141l-15.0771-39.3945h-0.2432c0.2842,3.1211,0.4258,6.8301,0.4258,11.126v28.2686h-4.7725
		v-44.4404h7.7822l14.0732,36.6592h0.2432l14.1953-36.6592h7.7207v44.4404h-5.167v-28.6338c0-3.2832,0.1416-6.8496,0.4258-10.6992
		h-0.2432l-15.1992,39.333H466.7227z"/>
	<path fill="#FFFFFF" d="M541.833,538.6328c0,7.1133-1.7988,12.7061-5.3955,16.7793c-3.5977,4.0732-8.5977,6.1104-15.001,6.1104
		c-6.5459,0-11.5967-2.001-15.1533-6.0039c-3.5557-4.002-5.334-9.6514-5.334-16.9463c0-7.2344,1.7832-12.8428,5.3496-16.8242
		c3.5664-3.9824,8.6328-5.9736,15.1982-5.9736c6.3838,0,11.3682,2.0273,14.9551,6.0801S541.833,531.5,541.833,538.6328z
		 M506.4209,538.6328c0,6.0186,1.2812,10.584,3.8447,13.6943s6.2871,4.666,11.1709,4.666c4.9238,0,8.6426-1.5508,11.1553-4.6514
		c2.5127-3.0996,3.7695-7.6699,3.7695-13.709c0-5.9775-1.252-10.5117-3.7539-13.6025c-2.5029-3.0898-6.2061-4.6348-11.1104-4.6348
		c-4.9238,0-8.668,1.5547-11.2314,4.666C507.7021,528.1719,506.4209,532.6963,506.4209,538.6328z"/>
	<path fill="#FFFFFF" d="M587.2158,538.2686c0,7.3359-1.9912,12.9443-5.9736,16.8242c-3.9814,3.8809-9.7109,5.8213-17.1885,5.8213
		h-12.3115v-44.4404h13.6182c6.9102,0,12.2803,1.915,16.1104,5.7451S587.2158,531.3984,587.2158,538.2686z M581.7441,538.4512
		c0-5.7959-1.4541-10.1631-4.3623-13.1016c-2.9082-2.9375-7.2295-4.4072-12.9639-4.4072h-7.5078v35.5029h6.292
		c6.1602,0,10.791-1.5146,13.8916-4.5439S581.7441,544.3887,581.7441,538.4512z"/>
	<path fill="#FFFFFF" d="M621.8975,560.9141H597.124v-44.4404h24.7734v4.5898H602.292v14.3174h18.4199v4.5596H602.292v16.3535
		h19.6055V560.9141z"/>
	<path fill="#FFFFFF" d="M636.9141,542.4326v18.4814h-5.168v-44.4404h12.1895c5.4512,0,9.4785,1.0439,12.083,3.1309
		c2.6035,2.0879,3.9053,5.2285,3.9053,9.4238c0,5.877-2.9785,9.8477-8.9365,11.915l12.0674,19.9707h-6.1094l-10.7607-18.4814
		H636.9141z M636.9141,537.9951h7.082c3.6475,0,6.3232-0.7246,8.0254-2.1738c1.7021-1.4482,2.5527-3.6221,2.5527-6.5195
		c0-2.9385-0.8662-5.0557-2.5986-6.3535c-1.7324-1.2959-4.5137-1.9453-8.3438-1.9453h-6.7178V537.9951z"/>
	<path fill="#FFFFFF" d="M704.9424,560.9141h-5.8975l-24.2871-37.2969h-0.2432c0.3242,4.377,0.4863,8.3896,0.4863,12.0371v25.2598
		h-4.7725v-44.4404h5.8369l24.2256,37.1455h0.2432c-0.041-0.5479-0.1318-2.3057-0.2734-5.2744
		c-0.1416-2.9678-0.1924-5.0908-0.1514-6.3682v-25.5029h4.833V560.9141z"/>
	<path fill="#FFFFFF" d="M525.54,635.6172l-5.5322-14.1348h-17.8125l-5.4707,14.1348h-5.2285l17.5693-44.6221h4.3467
		l17.4785,44.6221H525.54z M518.3975,616.832l-5.168-13.7695c-0.668-1.7432-1.3574-3.8809-2.0664-6.4141
		c-0.4463,1.9453-1.085,4.084-1.915,6.4141l-5.2285,13.7695H518.3975z"/>
	<path fill="#FFFFFF" d="M556.5459,612.333h15.1064v21.6123c-2.3506,0.75-4.7412,1.3174-7.1729,1.7021
		c-2.4326,0.3848-5.249,0.5781-8.4512,0.5781c-6.7275,0-11.9658-2.001-15.7148-6.0039c-3.749-4.002-5.623-9.6104-5.623-16.8242
		c0-4.6201,0.9268-8.668,2.7812-12.1436s4.5234-6.1299,8.0098-7.9639c3.4844-1.834,7.5684-2.751,12.249-2.751
		c4.7422,0,9.1602,0.8711,13.2539,2.6143l-2.0068,4.5596c-4.0117-1.7031-7.8721-2.5537-11.5811-2.5537
		c-5.4102,0-9.6357,1.6113-12.6758,4.833c-3.0391,3.2217-4.5586,7.6904-4.5586,13.4053c0,5.998,1.4629,10.5479,4.3916,13.6475
		c2.9287,3.1006,7.2295,4.6514,12.9033,4.6514c3.0801,0,6.0898-0.3545,9.0283-1.0645v-13.6787h-9.9395V612.333z"/>
	<path fill="#FFFFFF" d="M582.3213,635.6172v-44.4404h5.168v44.4404H582.3213z"/>
	<path fill="#FFFFFF" d="M599.6777,635.6172v-44.4404h5.168v39.7598h19.6055v4.6807H599.6777z"/>
	<path fill="#FFFFFF" d="M656.7627,635.6172h-24.7734v-44.4404h24.7734v4.5898h-19.6055v14.3174h18.4199v4.5596h-18.4199v16.3535
		h19.6055V635.6172z"/>
</g>
<path fill="#4B5666" d="M596.1172,84.4746c-7.8867,0-18.1074,4.6484-20.1182,12.4736l-0.002-0.002v0.002
	c-2.0107-7.8252-12.2305-12.4736-20.1162-12.4736c-15.5508,0-28.1631,12.0703-28.1631,28.1641
	c0,18.9355,11.1963,30.5225,23.4023,39.9258c7.3213,5.6416,23.5713,18.4102,24.8574,18.4102c0.0078,0,0.0137-0.002,0.0195-0.002
	c0.0068,0,0.0146,0.002,0.0205,0.002c1.2871,0,17.5371-12.7686,24.8584-18.4102c12.2051-9.4033,23.4043-20.9902,23.4043-39.9258
	C624.2803,96.5449,611.668,84.4746,596.1172,84.4746z M544.957,97.2129c-4.8623,3.5967-7.6523,9.2188-7.6523,15.4258
	c0,1.0234-0.8281,1.8535-1.8525,1.8535c-1.0234,0-1.8535-0.8301-1.8535-1.8535c0-7.3945,3.3359-14.1025,9.1543-18.4053
	c0.8213-0.6094,1.9814-0.4355,2.5908,0.3877S545.7783,96.6055,544.957,97.2129z"/>
<path fill="#4B5666" d="M609.6885,812.8311h-67.3799c-1.5449,0-2.7998,1.252-2.7998,2.7969l0.0029,25.9648
	c0,0.002,0.001,0.0059,0.001,0.0098c0,7.7988,0,15.6211,0,18.2344c0,5.7969,1.9561,14.1484,9.4453,22.5391
	c10.7305,12.0176,27.0439,16.9551,27.0439,16.9551s16.3125-4.9375,27.043-16.9551c7.4893-8.3906,9.4453-16.7422,9.4453-22.5391
	c0-2.6133,0-10.4355,0-18.2344c0-0.0039,0.001-0.0078,0.001-0.0098l-0.0039-25.9648
	C612.4873,814.083,611.2334,812.8311,609.6885,812.8311z M556.3057,878.9092c-0.3535,0.3145-0.7949,0.4688-1.2334,0.4688
	c-0.5107,0-1.0176-0.209-1.3838-0.6191c-7.3506-8.2324-8.4473-16.0156-8.4473-19.9219c0-1.0234,0.8291-1.8535,1.8525-1.8535
	s1.8545,0.8301,1.8545,1.8535c0,3.3789,0.9746,10.1387,7.5059,17.4531C557.1357,877.0537,557.0674,878.2256,556.3057,878.9092z
	 M606.7119,841.5029c-0.001,0.0312-0.001,0.0664-0.001,0.0996v18.2344c0,3.6426-1.0371,10.916-7.9766,18.6895
	c-7.5762,8.4863-18.5674,13.1426-22.7324,14.6895l-0.0039-74.6074h30.7109L606.7119,841.5029z"/>
<path fill-rule="evenodd" clip-rule="evenodd" fill="#4B5666" d="M243.4507,506.4004c0,11.8926-6.5791,22.2422-16.2925,27.623
	c0,0-1.1807,0.6758-2.7192,0.9424c-1.4961,0.2578-2.6011,0.3066-2.6011,0.3066h-9.9546h-9.9531c0,0-1.1064-0.0488-2.603-0.3066
	c-1.5381-0.2666-2.7188-0.9424-2.7188-0.9424c-9.7134-5.3809-16.2925-15.7305-16.2925-27.623
	c0-13.1309,8.019-24.3857,19.4258-29.1436v-17.9307c-1.5508,0-2.8081-1.2578-2.8081-2.8066v-4.9395
	c0-1.5508,1.2573-2.8076,2.8081-2.8076h24.2832c1.5508,0,2.8086,1.2568,2.8086,2.8076v4.9395c0,1.5488-1.2578,2.8066-2.8086,2.8066
	v17.9307C235.4316,482.0146,243.4507,493.2695,243.4507,506.4004z M220.0063,450.6797h-16.2451
	c-1.0239,0-1.8535,0.8311-1.8535,1.8545c0,1.0244,0.8296,1.8535,1.8535,1.8535h16.2451c1.0239,0,1.8545-0.8291,1.8545-1.8535
	C221.8608,451.5107,221.0303,450.6797,220.0063,450.6797z M221.8008,482.5908c-2.1523-0.8975-3.5557-3.002-3.5557-5.334v-17.9307
	h-12.7236v17.9307c0,2.332-1.4023,4.4365-3.5552,5.334c-9.6401,4.0215-15.8711,13.3682-15.8711,23.8096
	c0,9.3691,5.1001,18.0166,13.3096,22.5664c0.1255,0.0625,0.5244,0.2373,0.9072,0.3047c0.853,0.1465,1.54,0.2031,1.7881,0.2207
	h9.7832h9.7852c0.2339-0.0156,0.9263-0.0723,1.7881-0.2217c0.3828-0.0664,0.7793-0.2412,0.9053-0.3037
	c8.2095-4.5498,13.3096-13.1973,13.3096-22.5664C237.6714,495.959,231.4419,486.6123,221.8008,482.5908z M233.9639,506.4004
	c0,7.9629-4.3003,15.3135-11.2388,19.2344c-0.5337,0.0879-0.9756,0.1328-1.2031,0.1504h-19.2817
	c-0.2104-0.0176-0.6558-0.0615-1.1963-0.1504c-6.939-3.9199-11.2427-11.2715-11.2427-19.2344c0-2.8027,0.5332-5.4854,1.4907-7.9551
	h41.1841C233.4336,500.915,233.9639,503.5977,233.9639,506.4004z M205.1714,518.9609c-4.7559-3.0137-7.7012-8.3418-7.7012-13.9648
	c0-1.0234-0.8296-1.8525-1.854-1.8525c-1.0229,0-1.854,0.8291-1.854,1.8525c0,6.9775,3.7026,13.5859,9.6621,17.2441l0.3779,0.2197
	l0.5547,0.0596c0.0537,0.0049,0.1069,0.0068,0.1611,0.0068c0.9482,0,1.7227-0.7314,1.8062-1.6963
	C206.395,520.0107,205.8979,519.2676,205.1714,518.9609z"/>
<path fill-rule="evenodd" clip-rule="evenodd" fill="#4B5666" d="M991.1162,481.8281c-0.127,0-0.2627-0.0088-0.4053-0.0303
	l-5.4014-0.7549l-0.001,39.4395c0,1.5439-1.2178,3.1426-2.7061,3.5537l-39.6816,10.9277c-0.7441,0.2041-1.7266,0.3086-2.707,0.3086
	c-0.9814,0-1.9619-0.1045-2.707-0.3086l-39.6797-10.9277c-1.4902-0.4111-2.707-2.0098-2.707-3.5537l0.001-39.4395l-5.4033,0.7549
	c-0.1426,0.0215-0.2773,0.0303-0.4043,0.0303c-1.2461,0-1.7881-0.918-1.2031-2.1904l7.5938-16.5352
	c0.6445-1.4033,2.3887-2.8887,3.8789-3.2979l39.6797-10.9307c0.249-0.0684,0.4795-0.1016,0.6904-0.1016
	c0.0938,0,0.1777,0.0137,0.2617,0.0273c0.085-0.0137,0.168-0.0273,0.2607-0.0273c0.2119,0,0.4424,0.0332,0.6904,0.1016
	l39.6807,10.9307c1.4902,0.4092,3.2354,1.8945,3.8799,3.2979l7.5938,16.5352C992.9053,480.9102,992.3643,481.8281,991.1162,481.8281
	z M901.1406,515.9834c0,1.0234,0.8301,1.8525,1.8535,1.8525c1.0244,0,1.8535-0.8291,1.8535-1.8525v-17.6865
	c0-1.0244-0.8291-1.8535-1.8535-1.8535c-1.0234,0-1.8535,0.8291-1.8535,1.8535V515.9834z M900.5654,463.3779
	c-0.4375,0.1221-1.3037,0.8594-1.4941,1.2715l-5.9365,12.9268l37.0947-5.2021c0.1895-0.0635,0.5186-0.3457,0.6094-0.5234
	l5.6143-18.3594L900.5654,463.3779z M940.5273,474.6533l-0.3125-1.0225v54.7773c0.6484,0,1.0752-0.0752,1.1729-0.1006
	l38.1426-10.5049v-31.7363l-30.6758-4.3037C945.1318,481.2412,941.6289,478.251,940.5273,474.6533z M981.3584,464.6494
	c-0.1904-0.4121-1.0566-1.1494-1.4951-1.2715l-35.8877-9.8867l5.6152,18.3594c0.0898,0.1777,0.4199,0.46,0.6104,0.5234
	l37.0928,5.2021L981.3584,464.6494z"/>
</svg>
