<?xml version="1.0" encoding="utf-8"?>
<!-- Generator: Adobe Illustrator 15.0.0, SVG Export Plug-In . SVG Version: 6.00 Build 0)  -->
<!DOCTYPE svg PUBLIC "-//W3C//DTD SVG 1.1//EN" "http://www.w3.org/Graphics/SVG/1.1/DTD/svg11.dtd">
<svg version="1.1" id="Layer_1" xmlns="http://www.w3.org/2000/svg" xmlns:xlink="http://www.w3.org/1999/xlink" x="0px" y="0px"
	 width="177.4141px" height="158.9243px" viewBox="0 0 177.4141 158.9243" enable-background="new 0 0 177.4141 158.9243"
	 xml:space="preserve">
<path fill="#FBD35C" d="M125.668,0C111.1777,0,92.3994,8.542,88.707,22.9189l-0.0029-0.0029v0.0029
	C85.0098,8.542,66.2314,0,51.7451,0C23.1738,0,0,22.1792,0,51.7461c0,34.7896,20.5723,56.0786,42.9961,73.354
	c13.4541,10.3652,43.3086,33.8242,45.6719,33.8242c0.0117,0,0.0234-0.0039,0.0361-0.0039c0.0117,0,0.0254,0.0039,0.0381,0.0039
	c2.3623,0,32.2188-23.459,45.6719-33.8242c22.4238-17.2754,43-38.5645,43-73.354C177.4141,22.1792,154.2402,0,125.668,0z"/>
</svg>
