<?xml version="1.0" encoding="utf-8"?>
<!-- Generator: Adobe Illustrator 15.0.0, SVG Export Plug-In . SVG Version: 6.00 Build 0)  -->
<!DOCTYPE svg PUBLIC "-//W3C//DTD SVG 1.1//EN" "http://www.w3.org/Graphics/SVG/1.1/DTD/svg11.dtd">
<svg version="1.1" id="Layer_1" xmlns="http://www.w3.org/2000/svg" xmlns:xlink="http://www.w3.org/1999/xlink" x="0px" y="0px"
	 width="134.0894px" height="158.9238px" viewBox="0 0 134.0894 158.9238" enable-background="new 0 0 134.0894 158.9238"
	 xml:space="preserve">
<path fill="#A1BDE3" d="M128.9399,0H5.1431C2.3047,0,0,2.3008,0,5.1406l0.0059,47.7051c0,0.0039,0.0015,0.0098,0.0015,0.0137
	c0,14.3301,0,28.7031,0,33.5059c0,10.6484,3.5938,25.9961,17.3535,41.4082c19.7158,22.082,49.6865,31.1504,49.6865,31.1504
	s29.9707-9.0684,49.6865-31.1504c13.7598-15.4121,17.3535-30.7598,17.3535-41.4082c0-4.8027,0-19.1758,0-33.5059
	c0-0.0039,0.002-0.0098,0.002-0.0137l-0.0059-47.7051C134.0835,2.3008,131.7778,0,128.9399,0z M123.4712,52.6777
	c-0.001,0.0605-0.001,0.1211-0.001,0.1816v33.5059c0,6.6934-1.9062,20.0547-14.6562,34.3359
	c-13.9199,15.5918-34.1133,24.1484-41.7666,26.9902L67.0415,10.6172h56.4238L123.4712,52.6777z"/>
</svg>
