<?xml version="1.0" encoding="utf-8"?>
<!-- Generator: Adobe Illustrator 15.0.0, SVG Export Plug-In . SVG Version: 6.00 Build 0)  -->
<!DOCTYPE svg PUBLIC "-//W3C//DTD SVG 1.1//EN" "http://www.w3.org/Graphics/SVG/1.1/DTD/svg11.dtd">
<svg version="1.1" id="Layer_1" xmlns="http://www.w3.org/2000/svg" xmlns:xlink="http://www.w3.org/1999/xlink" x="0px" y="0px"
	 width="115.9995px" height="158.9258px" viewBox="0 0 115.9995 158.9258" enable-background="new 0 0 115.9995 158.9258"
	 xml:space="preserve">
<path fill="#FA7977" d="M115.9995,105.8828c0,21.8496-12.0898,40.8652-29.9365,50.751c0,0-2.1689,1.2412-4.9951,1.7295
	c-2.749,0.4746-4.7773,0.5625-4.7773,0.5625h-18.291H39.7119c0,0-2.0322-0.0889-4.7808-0.5625
	c-2.8262-0.4883-4.9951-1.7295-4.9951-1.7295C12.0884,146.748,0,127.7324,0,105.8828c0-24.127,14.7334-44.8071,35.6919-53.5474
	V19.3911c-2.8511,0-5.1602-2.3105-5.1602-5.1592V5.1582C30.5317,2.3086,32.8418,0,35.6919,0h44.6152
	c2.8496,0,5.1592,2.3096,5.1592,5.1582v9.0737c0,2.8496-2.3105,5.1592-5.1592,5.1592v32.9443
	C101.2651,61.0776,115.9995,81.7559,115.9995,105.8828z M72.9253,3.5049H43.0762c-1.8813,0-3.4053,1.5254-3.4053,3.4062
	c0,1.8813,1.5239,3.4048,3.4053,3.4048h29.8491c1.8809,0,3.4062-1.5234,3.4062-3.4048C76.3315,5.0312,74.8062,3.5049,72.9253,3.5049
	z M76.2222,62.1353c-3.9551-1.6494-6.5322-5.5146-6.5322-9.7998V19.3911H46.311v32.9443c0,4.2852-2.5762,8.1494-6.5312,9.7998
	c-17.7134,7.3901-29.1602,24.561-29.1602,43.7476c0,17.2129,9.3687,33.0986,24.4541,41.459c0.229,0.1172,0.9634,0.4365,1.666,0.5596
	c1.5674,0.2705,2.8291,0.375,3.2852,0.4072h17.9756H75.98c0.4297-0.0293,1.7012-0.1348,3.2861-0.4082
	c0.7021-0.1221,1.4307-0.4404,1.6611-0.5586c15.083-8.3604,24.4541-24.2461,24.4541-41.459
	C105.3804,86.6963,93.937,69.5254,76.2222,62.1353z M98.5698,105.8828c0,14.627-7.9014,28.1338-20.6504,35.3369
	c-0.9805,0.1611-1.793,0.2432-2.2109,0.2773H40.2808c-0.3857-0.0332-1.2036-0.1123-2.1968-0.2773
	c-12.7495-7.2021-20.6558-20.71-20.6558-35.3369c0-5.1523,0.979-10.0791,2.7373-14.6182h75.6689
	C97.5942,95.8037,98.5698,100.7305,98.5698,105.8828z M45.667,128.958c-8.7383-5.5361-14.1489-15.3262-14.1489-25.6553
	c0-1.8809-1.5239-3.4062-3.4053-3.4062c-1.8804,0-3.4072,1.5254-3.4072,3.4062c0,12.8174,6.8042,24.959,17.7524,31.6807
	l0.6948,0.4033l1.019,0.1113c0.0981,0.0088,0.1973,0.0127,0.2969,0.0127c1.7412,0,3.1646-1.3447,3.3179-3.1182
	C47.9165,130.8877,47.002,129.5215,45.667,128.958z"/>
</svg>
