<?xml version="1.0" encoding="utf-8"?>
<!-- Generator: Adobe Illustrator 15.0.0, SVG Export Plug-In . SVG Version: 6.00 Build 0)  -->
<!DOCTYPE svg PUBLIC "-//W3C//DTD SVG 1.1//EN" "http://www.w3.org/Graphics/SVG/1.1/DTD/svg11.dtd">
<svg version="1.1" id="Layer_1" xmlns="http://www.w3.org/2000/svg" xmlns:xlink="http://www.w3.org/1999/xlink" x="0px" y="0px"
	 width="134.0894px" height="158.9238px" viewBox="0 0 134.0894 158.9238" enable-background="new 0 0 134.0894 158.9238"
	 xml:space="preserve">
<path fill="#A1BDE3" d="M128.9399,0H5.1431C2.3047,0,0,2.3008,0,5.1406l0.0059,47.7051c0,0.0039,0.0015,0.0098,0.0015,0.0137
	c0,14.3301,0,28.7031,0,33.5059c0,10.6484,3.5938,25.9961,17.3535,41.4082c19.7158,22.082,49.6865,31.1504,49.6865,31.1504
	s29.9707-9.0684,49.6865-31.1504c13.7598-15.4121,17.3535-30.7598,17.3535-41.4082c0-4.8027,0-19.1758,0-33.5059
	c0-0.0039,0.002-0.0098,0.002-0.0137l-0.0059-47.7051C134.0835,2.3008,131.7778,0,128.9399,0z M30.8599,121.4023
	c-0.6504,0.5801-1.4609,0.8633-2.2666,0.8633c-0.9375,0-1.8691-0.3828-2.542-1.1367c-13.5049-15.125-15.521-29.4258-15.521-36.6035
	c0-1.8789,1.5244-3.4043,3.4043-3.4043c1.8813,0,3.4067,1.5254,3.4067,3.4043c0,6.209,1.791,18.6289,13.791,32.0664
	C32.3838,117.9961,32.2607,120.1484,30.8599,121.4023z M123.4712,52.6777c-0.001,0.0605-0.001,0.1211-0.001,0.1816v33.5059
	c0,6.6934-1.9062,20.0547-14.6562,34.3359c-13.9199,15.5918-34.1133,24.1484-41.7666,26.9902L67.0415,10.6172h56.4238
	L123.4712,52.6777z"/>
</svg>
