<?xml version="1.0" encoding="utf-8"?>
<!-- Generator: Adobe Illustrator 15.0.0, SVG Export Plug-In . SVG Version: 6.00 Build 0)  -->
<!DOCTYPE svg PUBLIC "-//W3C//DTD SVG 1.1//EN" "http://www.w3.org/Graphics/SVG/1.1/DTD/svg11.dtd">
<svg version="1.1" id="Layer_1" xmlns="http://www.w3.org/2000/svg" xmlns:xlink="http://www.w3.org/1999/xlink" x="0px" y="0px"
	 width="192.3301px" height="158.9253px" viewBox="0 0 192.3301 158.9253" enable-background="new 0 0 192.3301 158.9253"
	 xml:space="preserve">
<path fill-rule="evenodd" clip-rule="evenodd" fill="#A4D970" d="M189.6865,60.7354c-0.2344,0-0.4824-0.0181-0.7451-0.0566
	l-9.9248-1.3892l-0.001,72.4639c0,2.8379-2.2383,5.7734-4.9727,6.5293l-72.9072,20.0771c-1.3672,0.376-3.1709,0.5654-4.9727,0.5654
	c-1.8037,0-3.6055-0.1895-4.9736-0.5654l-72.9023-20.0771c-2.7373-0.7559-4.9736-3.6914-4.9736-6.5293l0.001-72.4639l-9.9277,1.3892
	c-0.2607,0.0386-0.5088,0.0566-0.7432,0.0566c-2.29,0-3.2852-1.689-2.21-4.0264l13.9502-30.3809
	c1.1855-2.5771,4.3906-5.3057,7.1279-6.0586L94.417,0.1865C94.873,0.0625,95.2969,0,95.6846,0c0.1719,0,0.3262,0.0269,0.4805,0.0503
	C96.3223,0.0269,96.4736,0,96.6445,0c0.3887,0,0.8125,0.0625,1.2686,0.1865l72.9053,20.083
	c2.7373,0.7529,5.9424,3.4814,7.1279,6.0586l13.9502,30.3809C192.9717,59.0464,191.9766,60.7354,189.6865,60.7354z M23.3193,26.835
	c-0.8057,0.2251-2.3965,1.5791-2.7461,2.3374L9.665,52.9229l68.1533-9.5601c0.3496-0.1157,0.9541-0.6338,1.1191-0.96L89.2529,8.6714
	L23.3193,26.835z M96.7393,47.5518l-0.5742-1.8779V146.314c1.1914,0,1.9746-0.1367,2.1533-0.1836l70.0811-19.3008V68.521
	l-56.3613-7.9072C105.1992,59.6538,98.7646,54.1611,96.7393,47.5518z M171.7568,29.1724c-0.3496-0.7583-1.9404-2.1123-2.7461-2.3374
	L103.0752,8.6714l10.3154,33.7314c0.166,0.3262,0.7715,0.8442,1.1211,0.96l68.1523,9.5601L171.7568,29.1724z"/>
</svg>
