<?xml version="1.0" encoding="utf-8"?>
<!-- Generator: Adobe Illustrator 15.0.0, SVG Export Plug-In . SVG Version: 6.00 Build 0)  -->
<!DOCTYPE svg PUBLIC "-//W3C//DTD SVG 1.1//EN" "http://www.w3.org/Graphics/SVG/1.1/DTD/svg11.dtd">
<svg version="1.1" id="Layer_1" xmlns="http://www.w3.org/2000/svg" xmlns:xlink="http://www.w3.org/1999/xlink" x="0px" y="0px"
	 width="177.4141px" height="158.9243px" viewBox="0 0 177.4141 158.9243" enable-background="new 0 0 177.4141 158.9243"
	 xml:space="preserve">
<path fill="#FBD35C" d="M125.668,0C111.1777,0,92.3994,8.542,88.707,22.9189l-0.0029-0.0029v0.0029
	C85.0098,8.542,66.2314,0,51.7451,0C23.1738,0,0,22.1792,0,51.7461c0,34.7896,20.5723,56.0786,42.9961,73.354
	c13.4541,10.3652,43.3086,33.8242,45.6719,33.8242c0.0117,0,0.0234-0.0039,0.0361-0.0039c0.0117,0,0.0254,0.0039,0.0381,0.0039
	c2.3623,0,32.2188-23.459,45.6719-33.8242c22.4238-17.2754,43-38.5645,43-73.354C177.4141,22.1792,154.2402,0,125.668,0z
	 M31.6738,23.4062c-8.9326,6.606-14.0586,16.938-14.0586,28.3408c0,1.8809-1.5225,3.4058-3.4033,3.4058
	c-1.8818,0-3.4072-1.5249-3.4072-3.4058c0-13.5869,6.1299-25.9111,16.8184-33.8149c1.5117-1.1201,3.6416-0.8003,4.7617,0.7119
	C33.5039,20.1562,33.1836,22.2891,31.6738,23.4062z"/>
</svg>
