<?xml version="1.0" encoding="utf-8"?>
<!-- Generator: Adobe Illustrator 15.0.0, SVG Export Plug-In . SVG Version: 6.00 Build 0)  -->
<!DOCTYPE svg PUBLIC "-//W3C//DTD SVG 1.1//EN" "http://www.w3.org/Graphics/SVG/1.1/DTD/svg11.dtd">
<svg version="1.1" id="Layer_1" xmlns="http://www.w3.org/2000/svg" xmlns:xlink="http://www.w3.org/1999/xlink" x="0px" y="0px"
	 width="112.4858px" height="35.9653px" viewBox="0 0 112.4858 35.9653" enable-background="new 0 0 112.4858 35.9653"
	 xml:space="preserve">
<g>
	<g>
		<path fill="#4C5767" d="M5.8389,9.2725H5.7783L2.2852,0.1733H0.3535v11.0308h1.1851V4.187c0-1.0659-0.0356-1.9868-0.106-2.7612
			h0.0601l3.7427,9.7783H6.269l3.7725-9.7632h0.0601c-0.0703,0.9556-0.1055,1.8413-0.1055,2.6558v7.1074h1.2827V0.1733H9.3623
			L5.8389,9.2725z M18.8311,0c-1.6294,0-2.8867,0.4941-3.772,1.4824S13.731,3.8628,13.731,5.6587
			c0,1.8105,0.4414,3.2129,1.3242,4.2065c0.8828,0.9927,2.1367,1.4902,3.7612,1.4902c1.5894,0,2.8306-0.5054,3.7236-1.5171
			c0.8926-1.0112,1.3394-2.3994,1.3394-4.1646c0-1.771-0.4453-3.1592-1.3359-4.165C21.6533,0.5034,20.416,0,18.8311,0z
			 M21.5854,9.0767c-0.624,0.769-1.5469,1.1538-2.769,1.1538c-1.2124,0-2.1367-0.3857-2.7729-1.1577s-0.9541-1.9053-0.9541-3.3989
			c0-1.4741,0.3179-2.5967,0.9541-3.3687s1.5654-1.1587,2.7876-1.1587c1.2178,0,2.1367,0.3833,2.7583,1.1504
			c0.6211,0.7676,0.9316,1.8931,0.9316,3.377C22.521,7.1729,22.209,8.3066,21.5854,9.0767z M29.7188,0.1733h-3.3799v11.0308h3.0557
			c1.856,0,3.2783-0.4814,4.2666-1.4448c0.9883-0.9629,1.4824-2.355,1.4824-4.1758c0-1.7056-0.4751-3.0337-1.4258-3.9844
			S31.4341,0.1733,29.7188,0.1733z M32.6309,8.9673c-0.769,0.752-1.9185,1.1279-3.4478,1.1279h-1.562v-8.813h1.8638
			c1.4233,0,2.4961,0.3652,3.2183,1.0942c0.7217,0.7295,1.0825,1.8135,1.0825,3.2524C33.7856,7.1021,33.4009,8.2148,32.6309,8.9673z
			 M37.6035,11.2041h6.1489v-1.1465h-4.8662V5.998h4.5723V4.8662h-4.5723V1.312h4.8662V0.1733h-6.1489V11.2041z M53.1914,3.2896
			c0-1.0415-0.3232-1.8213-0.9692-2.3389c-0.6465-0.5181-1.646-0.7773-2.9995-0.7773h-3.0259v11.0308H47.48V6.6172h2.3013
			l2.6709,4.5869h1.5161l-2.9951-4.957C52.4521,5.7344,53.1914,4.748,53.1914,3.2896z M49.2383,5.5151H47.48V1.2974h1.6675
			c0.9507,0,1.6411,0.1611,2.0713,0.4829c0.4297,0.3223,0.6445,0.8481,0.6445,1.5771c0,0.7192-0.2109,1.2588-0.6333,1.6182
			C50.8071,5.3354,50.1431,5.5151,49.2383,5.5151z M63.1665,6.5034c-0.0107,0.3169,0.002,0.8442,0.0371,1.5811
			c0.0361,0.7368,0.0586,1.1729,0.0684,1.3086h-0.0605l-6.0137-9.2197h-1.4482v11.0308h1.1846v-6.27
			c0-0.9053-0.0405-1.9014-0.1211-2.9873h0.0605l6.0283,9.2573h1.4639V0.1733h-1.1992V6.5034z M74.2573,0.1279L69.896,11.2041
			h1.2979l1.3584-3.5083h4.4219l1.373,3.5083h1.3271L75.3364,0.1279H74.2573z M73.0044,6.5415l1.2979-3.4185
			c0.207-0.5786,0.3652-1.1089,0.4756-1.5918c0.1758,0.6294,0.3477,1.1597,0.5127,1.5918l1.2832,3.4185H73.0044z M86.0425,6.5718
			h2.4678v3.395c-0.7295,0.1758-1.4766,0.2637-2.2412,0.2637c-1.4082,0-2.4766-0.3848-3.2021-1.1538
			c-0.7275-0.77-1.0908-1.8994-1.0908-3.3877c0-1.4185,0.377-2.5283,1.1318-3.3271c0.7539-0.8003,1.8037-1.2002,3.1455-1.2002
			c0.9209,0,1.8789,0.2114,2.875,0.6333l0.498-1.1313c-1.0156-0.4321-2.1123-0.6484-3.29-0.6484
			c-1.1611,0-2.1758,0.2275-3.04,0.6826c-0.8652,0.4556-1.5283,1.1138-1.9883,1.9766c-0.46,0.8633-0.6904,1.8672-0.6904,3.0146
			c0,1.7905,0.4648,3.1826,1.3955,4.1763c0.9316,0.9927,2.2314,1.4902,3.9014,1.4902c0.7949,0,1.4941-0.0483,2.0977-0.144
			s1.1963-0.2358,1.7803-0.4224V5.4243h-3.75V6.5718z M92.4409,11.2041h1.2822V0.1733h-1.2822V11.2041z M98.0317,0.1733h-1.2832
			v11.0308h6.1494v-1.1616h-4.8662V0.1733z M110.9185,1.312V0.1733h-6.1494v11.0308h6.1494v-1.1465h-4.8662V5.998h4.5723V4.8662
			h-4.5723V1.312H110.9185z"/>
	</g>
</g>
<path fill="#FDD653" d="M13.8887,18.4009c-1.6016,0-3.6763,0.9443-4.085,2.5332H9.8032l0,0
	c-0.4082-1.5889-2.4834-2.5332-4.0845-2.5332C2.561,18.4009,0,20.8521,0,24.1196c0,3.8457,2.2734,6.1982,4.752,8.1074
	c1.4868,1.1455,4.7861,3.7383,5.0474,3.7383c0.002,0,0.0029,0,0.0039,0c0.0015,0,0.0029,0,0.0044,0
	c0.2612,0,3.561-2.5928,5.0479-3.7383c2.478-1.9092,4.752-4.2617,4.752-8.1074C19.6074,20.8521,17.0469,18.4009,13.8887,18.4009z"/>
<path fill="#B0C5E8" d="M47.3154,18.4009H33.6338c-0.314,0-0.5688,0.2549-0.5688,0.5679l0.001,5.2729c0,0,0,0.001,0,0.002
	c0,1.583,0,3.1719,0,3.7021c0,1.1777,0.397,2.873,1.918,4.5771c2.1792,2.4404,5.4912,3.4424,5.4912,3.4424
	s3.313-1.002,5.4917-3.4424c1.5205-1.7041,1.918-3.3994,1.918-4.5771c0-0.5303,0-2.1191,0-3.7021c0-0.001,0.0005-0.002,0.0005-0.002
	l-0.001-5.2729C47.8843,18.6558,47.6294,18.4009,47.3154,18.4009z M46.7114,24.2231c-0.0005,0.0059-0.0005,0.0137-0.0005,0.0205
	v3.7021c0,0.7402-0.2104,2.2168-1.6196,3.7959c-1.5386,1.7236-3.77,2.6689-4.6162,2.9824l-0.0005-15.1494h6.2363L46.7114,24.2231z"
	/>
<path fill="#EE7576" d="M77.5601,30.103c0,2.415-1.335,4.5156-3.3076,5.6094c0,0-0.2402,0.1367-0.5518,0.1904
	c-0.3047,0.0527-0.5293,0.0625-0.5293,0.0625h-2.0205h-2.0215c0,0-0.2246-0.0098-0.5283-0.0625
	c-0.3125-0.0537-0.5518-0.1904-0.5518-0.1904c-1.9727-1.0938-3.3086-3.1943-3.3086-5.6094c0-2.666,1.6289-4.9521,3.9443-5.918
	v-3.6406c-0.3145,0-0.5703-0.2559-0.5703-0.5703v-1.0029c0-0.3149,0.2559-0.5703,0.5703-0.5703h4.9307
	c0.3154,0,0.5703,0.2554,0.5703,0.5703v1.0029c0,0.3145-0.2549,0.5703-0.5703,0.5703v3.6406
	C75.9321,25.1509,77.5601,27.437,77.5601,30.103z M73.1646,25.2681c-0.4375-0.1826-0.7217-0.6094-0.7217-1.083v-3.6406h-2.584
	v3.6406c0,0.4736-0.2852,0.9004-0.7217,1.083c-1.958,0.8164-3.2227,2.7148-3.2227,4.835c0,1.9023,1.0352,3.6582,2.7031,4.582
	c0.0244,0.0127,0.1055,0.0488,0.1836,0.0615c0.1729,0.0303,0.3125,0.042,0.3633,0.0459h1.9863h1.9873
	c0.0469-0.0039,0.1875-0.0156,0.3623-0.0459c0.0781-0.0127,0.1582-0.0488,0.1846-0.0615c1.667-0.9238,2.7021-2.6797,2.7021-4.582
	C76.3872,27.9829,75.1216,26.0845,73.1646,25.2681z M75.6343,30.103c0,1.6162-0.873,3.1094-2.2822,3.9053
	c-0.1084,0.0176-0.1973,0.0273-0.2441,0.0303h-3.915c-0.043-0.0029-0.1338-0.0117-0.2432-0.0303
	c-1.4092-0.7959-2.2832-2.2891-2.2832-3.9053c0-0.5693,0.1094-1.1133,0.3037-1.6152h8.3623
	C75.5269,28.9897,75.6343,29.5337,75.6343,30.103z"/>
<path fill="#B1CF65" d="M112.1938,25.1138c-0.0254,0-0.0537-0.002-0.082-0.0068l-1.0967-0.1533l-0.001,8.0088
	c0,0.3145-0.2471,0.6377-0.5488,0.7217l-8.0586,2.2188c-0.1504,0.042-0.3506,0.0625-0.5488,0.0625
	c-0.2002,0-0.3984-0.0205-0.5498-0.0625l-8.0576-2.2188c-0.3027-0.084-0.5498-0.4072-0.5498-0.7217v-8.0088l-1.0967,0.1533
	c-0.0293,0.0049-0.0566,0.0068-0.082,0.0068c-0.2539,0-0.3633-0.1865-0.2441-0.4453l1.541-3.3574
	c0.1309-0.2852,0.4854-0.5869,0.7881-0.6699l8.0566-2.2197c0.0508-0.0137,0.0977-0.0205,0.1406-0.0205
	c0.0195,0,0.0361,0.0029,0.0537,0.0054c0.0166-0.0024,0.0332-0.0054,0.0527-0.0054c0.043,0,0.0889,0.0068,0.1396,0.0205
	l8.0586,2.2197c0.3018,0.083,0.6562,0.3848,0.7881,0.6699l1.541,3.3574C112.5571,24.9272,112.4468,25.1138,112.1938,25.1138z
	 M93.8062,21.3667c-0.0889,0.0254-0.2646,0.1748-0.3037,0.2588l-1.2051,2.624l7.5322-1.0557
	c0.0381-0.0127,0.1055-0.0703,0.124-0.1064l1.1406-3.7285L93.8062,21.3667z M101.9204,23.6567l-0.0625-0.208v11.123
	c0.1318,0,0.2178-0.0146,0.2373-0.0195l7.7461-2.1338v-6.4443l-6.2295-0.874C102.856,24.9937,102.145,24.3872,101.9204,23.6567z
	 M110.2124,21.6255c-0.0391-0.084-0.2148-0.2334-0.3037-0.2588l-7.2871-2.0078l1.1396,3.7285
	c0.0186,0.0361,0.085,0.0938,0.124,0.1064l7.5322,1.0557L110.2124,21.6255z"/>
</svg>
