<?xml version="1.0" encoding="utf-8"?>
<!-- Generator: Adobe Illustrator 15.0.2, SVG Export Plug-In . SVG Version: 6.00 Build 0)  -->
<!DOCTYPE svg PUBLIC "-//W3C//DTD SVG 1.1//EN" "http://www.w3.org/Graphics/SVG/1.1/DTD/svg11.dtd">
<svg version="1.1" id="Layer_1" xmlns="http://www.w3.org/2000/svg" xmlns:xlink="http://www.w3.org/1999/xlink" x="0px" y="0px"
	 width="1110.316px" height="1110.316px" viewBox="0 0 1110.316 1110.316" enable-background="new 0 0 1110.316 1110.316"
	 xml:space="preserve">
<circle fill="#4B5666" cx="555.158" cy="555.158" r="555.158"/>
<g>
	<path fill="#FBD35C" d="M181.483,181.477c206.542-206.542,540.808-206.539,747.354,0.008L555.163,555.157L181.483,181.477z"/>
</g>
<g>
	<path fill="#A4D970" d="M928.84,181.479c206.543,206.544,206.538,540.808-0.007,747.353L555.16,555.159L928.84,181.479z"/>
</g>
<g>
	<path fill="#A1BDE3" d="M928.833,928.839c-206.542,206.544-540.808,206.538-747.353-0.007l373.673-373.673L928.833,928.839z"/>
</g>
<g>
	<path fill="#FA7977" d="M181.477,928.837c-206.542-206.544-206.539-540.808,0.006-747.353l373.674,373.673L181.477,928.837z"/>
</g>
<circle fill="#4B5666" cx="555.158" cy="555.158" r="187.634"/>
<path fill="#4B5666" d="M592.117,131.939c-14.49,0-33.269,8.542-36.961,22.919l-0.003-0.003v0.003
	c-3.694-14.377-22.473-22.919-36.959-22.919c-28.571,0-51.745,22.179-51.745,51.746c0,34.79,20.572,56.079,42.996,73.354
	c13.454,10.366,43.309,33.824,45.672,33.824c0.012,0,0.023-0.003,0.036-0.003c0.012,0,0.025,0.003,0.038,0.003
	c2.362,0,32.219-23.458,45.672-33.824c22.424-17.275,43-38.564,43-73.354C643.863,154.118,620.689,131.939,592.117,131.939z
	 M498.123,155.345c-8.933,6.606-14.059,16.938-14.059,28.341c0,1.881-1.522,3.406-3.403,3.406c-1.882,0-3.407-1.525-3.407-3.406
	c0-13.587,6.13-25.911,16.818-33.815c1.512-1.12,3.642-0.8,4.762,0.712C499.953,152.095,499.633,154.228,498.123,155.345z"/>
<path fill="#4B5666" d="M260.162,581.576c0,21.85-12.089,40.865-29.936,50.751c0,0-2.169,1.241-4.995,1.729
	c-2.749,0.475-4.778,0.562-4.778,0.562h-18.291h-18.288c0,0-2.032-0.089-4.781-0.562c-2.826-0.488-4.995-1.729-4.995-1.729
	c-17.848-9.886-29.936-28.901-29.936-50.751c0-24.127,14.733-44.807,35.692-53.547v-32.944c-2.851,0-5.16-2.311-5.16-5.159v-9.074
	c0-2.85,2.31-5.158,5.16-5.158h44.615c2.85,0,5.16,2.31,5.16,5.158v9.074c0,2.85-2.311,5.159-5.16,5.159v32.944
	C245.428,536.771,260.162,557.449,260.162,581.576z M217.087,479.198h-29.849c-1.881,0-3.405,1.525-3.405,3.406
	c0,1.881,1.524,3.405,3.405,3.405h29.849c1.881,0,3.406-1.523,3.406-3.405C220.494,480.725,218.968,479.198,217.087,479.198z
	 M220.384,537.829c-3.955-1.649-6.532-5.515-6.532-9.8v-32.944h-23.379v32.944c0,4.285-2.576,8.149-6.531,9.8
	c-17.713,7.39-29.16,24.561-29.16,43.748c0,17.213,9.369,33.099,24.454,41.459c0.229,0.117,0.963,0.437,1.666,0.56
	c1.567,0.271,2.829,0.375,3.285,0.407h17.976h17.979c0.43-0.029,1.701-0.135,3.286-0.408c0.702-0.122,1.431-0.44,1.662-0.559
	c15.083-8.36,24.454-24.246,24.454-41.459C249.543,562.39,238.099,545.219,220.384,537.829z M242.732,581.576
	c0,14.627-7.901,28.134-20.65,35.337c-0.98,0.161-1.792,0.243-2.21,0.277h-35.428c-0.386-0.033-1.204-0.112-2.197-0.277
	c-12.75-7.202-20.656-20.71-20.656-35.337c0-5.152,0.979-10.079,2.737-14.618h75.669
	C241.757,571.497,242.732,576.424,242.732,581.576z M189.83,604.651c-8.738-5.536-14.149-15.326-14.149-25.655
	c0-1.881-1.524-3.406-3.405-3.406c-1.88,0-3.407,1.525-3.407,3.406c0,12.817,6.804,24.959,17.752,31.681l0.695,0.403l1.019,0.111
	c0.098,0.009,0.197,0.013,0.297,0.013c1.741,0,3.165-1.345,3.318-3.118C192.079,606.581,191.165,605.215,189.83,604.651z"/>
<g>
	<path fill="#FFFFFF" d="M456.857,541.587l-13.562-35.438h-0.219c0.255,2.808,0.383,6.144,0.383,10.008v25.43h-4.293V501.61h7
		l12.66,32.977h0.219l12.771-32.977h6.944v39.977h-4.647v-25.758c0-2.953,0.127-6.161,0.383-9.625h-0.219l-13.673,35.383H456.857z"
		/>
	<path fill="#FFFFFF" d="M524.424,521.544c0,6.398-1.618,11.43-4.854,15.094c-3.236,3.664-7.734,5.496-13.494,5.496
		c-5.889,0-10.433-1.8-13.631-5.399c-3.199-3.601-4.799-8.683-4.799-15.244c0-6.508,1.604-11.554,4.812-15.136
		s7.766-5.372,13.672-5.372c5.742,0,10.228,1.822,13.453,5.469C522.811,510.097,524.424,515.128,524.424,521.544z M492.568,521.544
		c0,5.414,1.151,9.521,3.459,12.318c2.306,2.799,5.654,4.196,10.049,4.196c4.43,0,7.773-1.395,10.035-4.184
		c2.26-2.789,3.391-6.899,3.391-12.332c0-5.377-1.126-9.456-3.377-12.236c-2.252-2.778-5.583-4.17-9.994-4.17
		c-4.43,0-7.798,1.399-10.104,4.197C493.721,512.134,492.568,516.203,492.568,521.544z"/>
	<path fill="#FFFFFF" d="M565.248,521.216c0,6.601-1.791,11.646-5.373,15.135c-3.582,3.491-8.736,5.236-15.463,5.236h-11.074V501.61
		h12.25c6.216,0,11.047,1.723,14.492,5.168C563.525,510.223,565.248,515.036,565.248,521.216z M560.326,521.38
		c0-5.213-1.31-9.142-3.924-11.785c-2.616-2.643-6.504-3.965-11.662-3.965h-6.754v31.938h5.659c5.541,0,9.707-1.362,12.496-4.088
		C558.932,530.755,560.326,526.722,560.326,521.38z"/>
	<path fill="#FFFFFF" d="M596.447,541.587h-22.285V501.61h22.285v4.129H578.81v12.879h16.57v4.102h-16.57v14.711h17.638V541.587z"/>
	<path fill="#FFFFFF" d="M609.955,524.962v16.625h-4.648V501.61h10.966c4.902,0,8.525,0.938,10.868,2.815
		c2.343,1.878,3.515,4.703,3.515,8.478c0,5.287-2.681,8.858-8.039,10.719l10.854,17.965h-5.496l-9.68-16.625H609.955
		L609.955,524.962z M609.955,520.97h6.371c3.281,0,5.688-0.65,7.219-1.955c1.531-1.303,2.297-3.258,2.297-5.864
		c0-2.644-0.779-4.549-2.338-5.716c-1.559-1.166-4.061-1.75-7.506-1.75h-6.043V520.97L609.955,520.97z"/>
	<path fill="#FFFFFF" d="M671.15,541.587h-5.306l-21.848-33.551h-0.219c0.291,3.938,0.438,7.547,0.438,10.828v22.723h-4.293V501.61
		h5.25l21.793,33.414h0.219c-0.036-0.492-0.118-2.073-0.245-4.744c-0.129-2.67-0.175-4.58-0.138-5.729v-22.94h4.349V541.587
		L671.15,541.587z"/>
	<path fill="#FFFFFF" d="M509.768,608.787l-4.977-12.715h-16.023l-4.922,12.715h-4.703l15.806-40.141h3.91l15.723,40.141H509.768z
		 M503.342,591.889l-4.647-12.387c-0.603-1.567-1.223-3.49-1.859-5.77c-0.401,1.75-0.976,3.674-1.723,5.77l-4.703,12.387H503.342z"
		/>
	<path fill="#FFFFFF" d="M537.658,587.842h13.59v19.441c-2.115,0.675-4.266,1.186-6.453,1.531c-2.187,0.345-4.722,0.52-7.602,0.52
		c-6.054,0-10.766-1.8-14.138-5.4c-3.373-3.6-5.059-8.645-5.059-15.135c0-4.156,0.834-7.797,2.502-10.924
		c1.668-3.126,4.069-5.514,7.205-7.164c3.135-1.649,6.809-2.475,11.02-2.475c4.267,0,8.239,0.783,11.923,2.352l-1.806,4.102
		c-3.608-1.53-7.082-2.297-10.418-2.297c-4.867,0-8.668,1.449-11.401,4.349c-2.734,2.898-4.103,6.918-4.103,12.059
		c0,5.396,1.316,9.488,3.951,12.277c2.634,2.789,6.503,4.184,11.606,4.184c2.771,0,5.479-0.317,8.121-0.957v-12.305h-8.94
		L537.658,587.842L537.658,587.842z"/>
	<path fill="#FFFFFF" d="M560.846,608.787V568.81h4.648v39.978H560.846z"/>
	<path fill="#FFFFFF" d="M576.459,608.787V568.81h4.648v35.767h17.637v4.211H576.459z"/>
	<path fill="#FFFFFF" d="M627.811,608.787h-22.284V568.81h22.284v4.13h-17.637v12.879h16.57v4.102h-16.57v14.711h17.637V608.787z"/>
</g>
<path fill="#4B5666" d="M617.052,826.98H493.255c-2.838,0-5.143,2.301-5.143,5.141l0.006,47.705c0,0.004,0.001,0.01,0.001,0.014
	c0,14.33,0,28.703,0,33.506c0,10.648,3.594,25.996,17.354,41.408c19.716,22.082,49.687,31.15,49.687,31.15
	s29.971-9.068,49.687-31.15c13.76-15.412,17.354-30.76,17.354-41.408c0-4.803,0-19.176,0-33.506c0-0.004,0.002-0.01,0.002-0.014
	l-0.006-47.705C622.195,829.281,619.89,826.98,617.052,826.98z M518.972,948.383c-0.65,0.58-1.461,0.863-2.267,0.863
	c-0.938,0-1.869-0.383-2.542-1.137c-13.505-15.125-15.521-29.426-15.521-36.604c0-1.879,1.524-3.404,3.404-3.404
	c1.881,0,3.407,1.525,3.407,3.404c0,6.209,1.791,18.629,13.791,32.066C520.496,944.977,520.373,947.129,518.972,948.383z
	 M611.583,879.658c-0.001,0.061-0.001,0.121-0.001,0.182v33.506c0,6.693-1.906,20.055-14.656,34.336
	c-13.92,15.592-34.113,24.148-41.767,26.99l-0.006-137.074h56.424L611.583,879.658z"/>
<path fill-rule="evenodd" clip-rule="evenodd" fill="#4B5666" d="M999.375,536.433c-0.234,0-0.482-0.018-0.745-0.057l-9.925-1.389
	l-0.001,72.464c0,2.838-2.238,5.773-4.973,6.529l-72.907,20.077c-1.367,0.376-3.171,0.565-4.973,0.565
	c-1.804,0-3.605-0.189-4.974-0.565l-72.902-20.077c-2.737-0.756-4.974-3.691-4.974-6.529l0.001-72.464l-9.928,1.389
	c-0.261,0.039-0.509,0.057-0.743,0.057c-2.29,0-3.285-1.689-2.21-4.026l13.95-30.381c1.186-2.577,4.391-5.306,7.128-6.059
	l72.905-20.083c0.456-0.124,0.88-0.187,1.268-0.187c0.172,0,0.326,0.027,0.48,0.05c0.157-0.023,0.309-0.05,0.479-0.05
	c0.389,0,0.812,0.062,1.269,0.187l72.905,20.083c2.737,0.753,5.942,3.481,7.128,6.059l13.95,30.381
	C1002.66,534.744,1001.665,536.433,999.375,536.433z M834.062,599.186c0,1.881,1.525,3.404,3.406,3.404
	c1.882,0,3.404-1.523,3.404-3.404v-32.496c0-1.881-1.522-3.407-3.404-3.407c-1.881,0-3.406,1.526-3.406,3.407V599.186z
	 M833.008,502.533c-0.806,0.225-2.396,1.579-2.746,2.337l-10.908,23.75l68.153-9.56c0.35-0.116,0.954-0.634,1.119-0.96
	l10.315-33.731L833.008,502.533z M906.428,523.25l-0.574-1.878v100.64c1.191,0,1.975-0.137,2.153-0.184l70.081-19.301v-58.309
	l-56.361-7.907C914.888,535.352,908.453,529.859,906.428,523.25z M981.445,504.87c-0.35-0.758-1.94-2.112-2.746-2.337
	l-65.936-18.164l10.315,33.731c0.166,0.326,0.771,0.844,1.121,0.96l68.152,9.56L981.445,504.87z"/>
</svg>
